<svg width="16" height="16" viewBox="0 0 16 16" fill="none" xmlns="http://www.w3.org/2000/svg">
<rect width="16" height="16" rx="3" fill="#7346D0"/>
<path d="M6.68038 9.53367L6.32848 9.13916L1.98145 4.40503L3.96735 4.69096L7.13534 8.12174L7.40444 8.43319L7.73564 8.78618L8.06685 9.13916L10.2594 11.6062L12.9934 14.5412L10.9032 14.1432L7.38419 10.3227L6.99088 9.90742L6.68038 9.53367Z" fill="#FAFAFA"/>
<path d="M2.13818 14.2142L6.39074 9.09785L6.84614 8.57876L7.15665 8.18425L7.34295 7.93508L12.725 1.43604V1.43604C12.8596 1.34148 13.0265 1.50104 12.938 1.63977L8.27445 8.95251L8.10885 9.22244L7.90185 9.53389L7.67415 9.86611L7.44645 10.2814L5.79044 12.8353L2.13818 14.2142Z" fill="#FAFAFA"/>
<ellipse cx="6.70126" cy="5.85858" rx="0.745206" ry="0.747494" fill="#FAFAFA"/>
</svg>
