<svg width="100" height="33" viewBox="0 0 100 33" fill="none" xmlns="http://www.w3.org/2000/svg">
<path d="M57.6451 20.4787L56.8006 19.532L46.3691 8.17163L51.1347 8.85778L58.7368 17.0905L59.3826 17.8379L60.1773 18.685L60.9721 19.532L66.2336 25.4521L72.7941 32.4951L67.7785 31.5401L59.334 22.3721L58.3902 21.3756L57.6451 20.4787Z" fill="#7346D0"/>
<path d="M46.7451 31.7099L56.9499 19.4322L58.0427 18.1865L58.7878 17.2398L59.2349 16.6419L72.15 1.04635V1.04635C72.4731 0.819452 72.8734 1.20233 72.6611 1.53525L61.4702 19.0834L61.0728 19.7312L60.576 20.4785L60.0296 21.2758L59.4832 22.2723L55.5093 28.4009L46.7451 31.7099Z" fill="#00D5CA"/>
<ellipse cx="57.6945" cy="11.6592" rx="1.78825" ry="1.79374" fill="#00D5CA"/>
<path d="M40.8604 32.665V8.10767H44.5089V32.665H40.8604Z" fill="#424242"/>
<path d="M17.8486 32.6396H0L0 28.9735H17.8486V32.6396Z" fill="#424242"/>
<path d="M13.3141 22.22H0L0 18.5538H13.3141V22.22Z" fill="#424242"/>
<path d="M17.8486 11.8H0L0 8.13386H17.8486V11.8Z" fill="#424242"/>
<path d="M22.2446 32.665V8.10767H25.8932V29.0165H36.4704V32.665H22.2446Z" fill="#424242"/>
<path fill-rule="evenodd" clip-rule="evenodd" d="M83.261 11.6554C81.7957 11.6554 80.6078 12.8433 80.6078 14.3086V16.3512C80.6078 17.8165 81.7957 19.0044 83.261 19.0044H93.4457V22.5741H83.261C79.8242 22.5741 77.0381 19.788 77.0381 16.3512V14.3086C77.0381 10.8718 79.8242 8.08569 83.261 8.08569H93.7771C97.2139 8.08569 100 10.8718 100 14.3086V26.3684C100 29.8052 97.2139 32.5913 93.7771 32.5913H77.0381V29.0216H93.7771C95.2424 29.0216 96.4303 27.8337 96.4303 26.3684V14.3086C96.4303 12.8433 95.2424 11.6554 93.7771 11.6554H83.261Z" fill="#424242"/>
</svg>
