<svg width="100" height="33" viewBox="0 0 100 33" fill="none" xmlns="http://www.w3.org/2000/svg">
<path d="M57.6445 20.4787L56.8001 19.532L46.3687 8.17163L51.1342 8.85777L58.7363 17.0905L59.382 17.8379L60.1768 18.6849L60.9716 19.532L66.233 25.4521L72.7936 32.495L67.7779 31.5401L59.3334 22.3721L58.3896 21.3755L57.6445 20.4787Z" fill="#7346D0"/>
<path d="M46.7451 31.7098L56.9498 19.4322L58.0427 18.1865L58.7878 17.2398L59.2348 16.6419L72.1499 1.04635V1.04635C72.4731 0.819451 72.8734 1.20233 72.6611 1.53525L61.4701 19.0834L61.0727 19.7311L60.576 20.4785L60.0296 21.2757L59.4832 22.2723L55.5093 28.4009L46.7451 31.7098Z" fill="#00D5CA"/>
<ellipse cx="57.694" cy="11.6592" rx="1.78825" ry="1.79374" fill="#00D5CA"/>
<path d="M40.8599 32.665V8.10767H44.5084V32.665H40.8599Z" fill="#FAFAFA"/>
<path d="M17.8485 32.6394H0L0 28.9732H17.8485V32.6394Z" fill="#FAFAFA"/>
<path d="M13.314 22.22H0L0 18.5538H13.314V22.22Z" fill="#FAFAFA"/>
<path d="M17.8485 11.8H0L0 8.13386H17.8485V11.8Z" fill="#FAFAFA"/>
<path d="M22.2456 32.665V8.10767H25.8941V29.0165H36.4713V32.665H22.2456Z" fill="#FAFAFA"/>
<path fill-rule="evenodd" clip-rule="evenodd" d="M83.2614 11.6554C81.7961 11.6554 80.6083 12.8433 80.6083 14.3086V16.3512C80.6083 17.8165 81.7961 19.0044 83.2614 19.0044H93.4462V22.5741H83.2614C79.8246 22.5741 77.0386 19.788 77.0386 16.3512V14.3086C77.0386 10.8718 79.8246 8.08569 83.2614 8.08569H93.7776C97.2144 8.08569 100 10.8718 100 14.3086V26.3684C100 29.8052 97.2144 32.5912 93.7776 32.5912H77.0386V29.0215H93.7776C95.2429 29.0215 96.4308 27.8337 96.4308 26.3684V14.3086C96.4308 12.8433 95.2429 11.6554 93.7776 11.6554H83.2614Z" fill="#FAFAFA"/>
</svg>
